<?xml version="1.0" encoding="utf-8"?>
<!-- Generator: Adobe Illustrator 28.2.0, SVG Export Plug-In . SVG Version: 6.00 Build 0)  -->
<svg version="1.1" id="Layer_1" xmlns="http://www.w3.org/2000/svg" xmlns:xlink="http://www.w3.org/1999/xlink" x="0px" y="0px"
	 viewBox="0 0 556 754" style="enable-background:new 0 0 556 754;" xml:space="preserve">
<style type="text/css">
	.st0{clip-path:url(#SVGID_00000179614265300053333140000006539250997264736926_);fill:#FFFFFF;}
	.st1{fill:#FFFFFF;}
	.st2{font-family:'Arial-BoldMT';}
	.st3{font-size:14.6667px;}
	.st4{fill:none;stroke:#000000;stroke-width:0.6667;stroke-linejoin:round;stroke-miterlimit:10;}
	.st5{fill:none;stroke:#262626;stroke-width:0.6667;stroke-linecap:square;stroke-linejoin:round;stroke-miterlimit:10;}
	.st6{fill:#262626;}
	.st7{font-family:'ArialMT';}
	.st8{font-size:13.3333px;}
</style>
<g>
	<g>
		<g>
			<defs>
				<rect id="SVGID_1_" y="0" width="556" height="754"/>
			</defs>
			<clipPath id="SVGID_00000107583988293971228480000003586769879492878224_">
				<use xlink:href="#SVGID_1_"  style="overflow:visible;"/>
			</clipPath>
			
				<rect y="0" style="clip-path:url(#SVGID_00000107583988293971228480000003586769879492878224_);fill:#FFFFFF;" width="556" height="754"/>
		</g>
	</g>
	<g>
		<rect y="0" class="st1" width="556" height="754"/>
		<path class="st1" d="M72,671h431V57H72V671z"/>
	</g>
	<g transform="translate(287.5003,54.25)">
		<text transform="matrix(1 0 0 1 -8.5 -4)" class="st2 st3">56</text>
	</g>
	<g transform="matrix(0.4995,0,0,0.5,71.9486,57)">
		<g>
			<defs>
				<rect id="SVGID_00000005945858652532209880000003409675557387962298_" x="216" y="307" width="431.1" height="614"/>
			</defs>
			<clipPath id="SVGID_00000031901512698494997290000002364572851812748161_">
				<use xlink:href="#SVGID_00000005945858652532209880000003409675557387962298_"  style="overflow:visible;"/>
			</clipPath>
			
				<image style="overflow:visible;clip-path:url(#SVGID_00000031901512698494997290000002364572851812748161_);enable-background:new    ;" width="863" height="1228" xlink:href="ECCB8A6F.png" >
			</image>
		</g>
	</g>
	<g>
		<path class="st4" d="M218.3,668.4l0.6-5.2l0.3-5.2l1.7-5.2l1.4-5.2l1.1-5.2l1.7-5.2l0.3-5.2l0.3-5.2l0.3-5.2v-5.2v-5.2l0.3-5.2
			l0.3-5.2v-5.2v-5.2l0.6-5.2l0.3-5.2v-5.2l0.3-5.2l0.6-5.2v-5.2l0.3-5.2l0.3-5.2l0.6-5.2v-5.2v-5.2l0.3-5.2l0.3-5.2l0.3-5.2
			l0.3-5.2l0.6-5.2l0.3-5.2v-5.2v-5.2l0.3-5.2v-5.2l0.6-5.2l0.3-5.2l0.3-5.2l1.7-5.2v-5.2l0.9-5.2l1.1-5.2l0.6-5.2v-5.2V427l0.3-5.2
			v-5.2l0.6-5.2l0.3-5.2l2.9-5.2v-5.2l0.6-5.2l0.3-5.2l0.3-5.2l0.6-5.2l2-5.2l0.9-5.2l0.3-5.2l1.1-5.2l0.6-5.2l0.6-5.2l0.3-5.2
			l0.6-5.2l0.3-5.2V322l1.1-5.2l0.3-5.2l0.6-5.2l1.7-5.2l0.6-5.2l0.6-5.2l0.6-5.2l0.6-5.2l0.6-5.2l0.9-5.2l0.9-5.2l0.3-5.2l0.6-5.2
			l0.9-5.2l1.7-5.2l1.1-5.2l1.4-5.2l3.7-5.2l4-5.2l5.2-5.2l0.3-5.2l4.6-5.2l1.1-5.2v-5.2l2.6-5.2l3.7-5.2l0.6-5.2l1.7-5.2l3.4-5.2
			l0.6-5.2l6.6-5.2l1.1-5.2l8.6-5.2l4.6-5.2l0.9-5.2l0.3-5.2l7.8-5.2l4.6-5.2l6.6-5.2l3.7-5.2l14.9-5.2l0.6-5.2l1.1-5.2l16.4-5.2
			l5.2-5.2l6.9-5.2l62.4-5.2l0.9-5.2l54.4-3.8"/>
		<path class="st4" d="M215.7,668.4v-5.2v-5.2v-5.2v-5.2v-5.2v-5.2v-5.2v-5.2v-5.2v-5.2v-5.2v-5.2v-5.2v-5.2v-5.2v-5.2v-5.2v-5.2
			v-5.2v-5.2v-5.2v-5.2v-5.2v-5.2v-5.2v-5.2v-5.2v-5.2v-5.2v-5.2v-5.2v-5.2v-5.2v-5.2v-5.2v-5.2v-5.2V469v-5.2v-5.2v-5.2V448v-5.2
			v-5.2v-5.2V427v-5.2v-5.2v-5.2V406v-5.2v-5.2v-5.2V385v-5.2v-5.2v-5.2V364v-5.2v-5.2v-5.2V343v-5.2v-5.2v-5.2V322v-5.2v-5.2v-5.2
			V301v-5.2v-5.2v-5.2V280v-5.2v-5.2v-5.2V259v-5.2v-5.2v-5.2v-5.2v-5.2v-5.2v-5.2v-5.2v-5.2v-5.2v-5.2v-5.2v-5.2v-5.2v-5.2v-5.2
			v-5.2v-5.2v-5.2v-5.2v-5.2v-5.2v-5.2v-5.2v-5.2v-5.2v-5.2v-5.2v-5.2v-5.2v-5.2v-5.2v-5.2v-5.2v-5.2v-5.2v-5.2v-5.2"/>
		<line class="st5" x1="72" y1="671" x2="503" y2="671"/>
		<line class="st5" x1="72" y1="57" x2="503" y2="57"/>
		<line class="st5" x1="72" y1="671" x2="72" y2="664.9"/>
		<line class="st5" x1="215.7" y1="671" x2="215.7" y2="664.9"/>
		<line class="st5" x1="359.3" y1="671" x2="359.3" y2="664.9"/>
		<line class="st5" x1="503" y1="671" x2="503" y2="664.9"/>
		<line class="st5" x1="72" y1="57" x2="72" y2="63.1"/>
		<line class="st5" x1="215.7" y1="57" x2="215.7" y2="63.1"/>
		<line class="st5" x1="359.3" y1="57" x2="359.3" y2="63.1"/>
		<line class="st5" x1="503" y1="57" x2="503" y2="63.1"/>
	</g>
	<g transform="translate(72,676.3333)">
		<text transform="matrix(1 0 0 1 -6 14)" class="st6 st7 st8">-5</text>
	</g>
	<g transform="translate(215.6667,676.3333)">
		<text transform="matrix(1 0 0 1 -4 14)" class="st6 st7 st8">0</text>
	</g>
	<g transform="translate(359.3333,676.3333)">
		<text transform="matrix(1 0 0 1 -4 14)" class="st6 st7 st8">5</text>
	</g>
	<g transform="translate(503,676.3333)">
		<text transform="matrix(1 0 0 1 -7.5 14)" class="st6 st7 st8">10</text>
	</g>
	<g>
		<line class="st5" x1="72" y1="671" x2="72" y2="57"/>
		<line class="st5" x1="503" y1="671" x2="503" y2="57"/>
		<line class="st5" x1="72" y1="621.1" x2="78.1" y2="621.1"/>
		<line class="st5" x1="72" y1="568.7" x2="78.1" y2="568.7"/>
		<line class="st5" x1="72" y1="516.2" x2="78.1" y2="516.2"/>
		<line class="st5" x1="72" y1="463.7" x2="78.1" y2="463.7"/>
		<line class="st5" x1="72" y1="411.2" x2="78.1" y2="411.2"/>
		<line class="st5" x1="72" y1="358.8" x2="78.1" y2="358.8"/>
		<line class="st5" x1="72" y1="306.3" x2="78.1" y2="306.3"/>
		<line class="st5" x1="72" y1="253.8" x2="78.1" y2="253.8"/>
		<line class="st5" x1="72" y1="201.3" x2="78.1" y2="201.3"/>
		<line class="st5" x1="72" y1="148.8" x2="78.1" y2="148.8"/>
		<line class="st5" x1="72" y1="96.4" x2="78.1" y2="96.4"/>
		<line class="st5" x1="503" y1="621.1" x2="496.9" y2="621.1"/>
		<line class="st5" x1="503" y1="568.7" x2="496.9" y2="568.7"/>
		<line class="st5" x1="503" y1="516.2" x2="496.9" y2="516.2"/>
		<line class="st5" x1="503" y1="463.7" x2="496.9" y2="463.7"/>
		<line class="st5" x1="503" y1="411.2" x2="496.9" y2="411.2"/>
		<line class="st5" x1="503" y1="358.8" x2="496.9" y2="358.8"/>
		<line class="st5" x1="503" y1="306.3" x2="496.9" y2="306.3"/>
		<line class="st5" x1="503" y1="253.8" x2="496.9" y2="253.8"/>
		<line class="st5" x1="503" y1="201.3" x2="496.9" y2="201.3"/>
		<line class="st5" x1="503" y1="148.8" x2="496.9" y2="148.8"/>
		<line class="st5" x1="503" y1="96.4" x2="496.9" y2="96.4"/>
	</g>
	<g transform="translate(66.6667,621.1453)">
		<text transform="matrix(1 0 0 1 -15 5.5)" class="st6 st7 st8">10</text>
	</g>
	<g transform="translate(66.6667,568.6667)">
		<text transform="matrix(1 0 0 1 -15 5.5)" class="st6 st7 st8">20</text>
	</g>
	<g transform="translate(66.6667,516.188)">
		<text transform="matrix(1 0 0 1 -15 5.5)" class="st6 st7 st8">30</text>
	</g>
	<g transform="translate(66.6667,463.7094)">
		<text transform="matrix(1 0 0 1 -15 5.5)" class="st6 st7 st8">40</text>
	</g>
	<g transform="translate(66.6667,411.2308)">
		<text transform="matrix(1 0 0 1 -15 5.5)" class="st6 st7 st8">50</text>
	</g>
	<g transform="translate(66.6667,358.7521)">
		<text transform="matrix(1 0 0 1 -15 5.5)" class="st6 st7 st8">60</text>
	</g>
	<g transform="translate(66.6667,306.2735)">
		<text transform="matrix(1 0 0 1 -15 5.5)" class="st6 st7 st8">70</text>
	</g>
	<g transform="translate(66.6667,253.7949)">
		<text transform="matrix(1 0 0 1 -15 5.5)" class="st6 st7 st8">80</text>
	</g>
	<g transform="translate(66.6667,201.3162)">
		<text transform="matrix(1 0 0 1 -15 5.5)" class="st6 st7 st8">90</text>
	</g>
	<g transform="translate(66.6667,148.8376)">
		<text transform="matrix(1 0 0 1 -23 5.5)" class="st6 st7 st8">100</text>
	</g>
	<g transform="translate(66.6667,96.359)">
		<text transform="matrix(1 0 0 1 -23 5.5)" class="st6 st7 st8">110</text>
	</g>
</g>
</svg>
