<?xml version="1.0" encoding="utf-8"?>
<!-- Generator: Adobe Illustrator 28.2.0, SVG Export Plug-In . SVG Version: 6.00 Build 0)  -->
<svg version="1.1" id="Layer_1" xmlns="http://www.w3.org/2000/svg" xmlns:xlink="http://www.w3.org/1999/xlink" x="0px" y="0px"
	 viewBox="0 0 700 498" style="enable-background:new 0 0 700 498;" xml:space="preserve">
<style type="text/css">
	.st0{fill:none;stroke:#262626;stroke-width:0.8333;stroke-linecap:square;stroke-linejoin:round;stroke-miterlimit:10;}
	.st1{fill:#262626;}
	.st2{font-family:'ArialMT';}
	.st3{font-size:16.6667px;}
	.st4{fill:none;stroke:#E62E2E;stroke-width:0.8333;stroke-linejoin:round;stroke-miterlimit:10;}
	.st5{fill:none;stroke:#2EE6E6;stroke-width:0.8333;stroke-linejoin:round;stroke-miterlimit:10;}
	.st6{fill:none;stroke:#000000;stroke-width:0.8333;stroke-linejoin:round;stroke-miterlimit:10;}
	.st7{fill:none;stroke:#000000;stroke-width:0.8333;stroke-linecap:square;stroke-miterlimit:10;}
	.st8{font-size:15px;}
</style>
<g>
	<line class="st0" x1="91" y1="444" x2="634" y2="444"/>
	<line class="st0" x1="91" y1="444" x2="91" y2="438.6"/>
	<line class="st0" x1="181.5" y1="444" x2="181.5" y2="438.6"/>
	<line class="st0" x1="272" y1="444" x2="272" y2="438.6"/>
	<line class="st0" x1="362.5" y1="444" x2="362.5" y2="438.6"/>
	<line class="st0" x1="453" y1="444" x2="453" y2="438.6"/>
	<line class="st0" x1="543.5" y1="444" x2="543.5" y2="438.6"/>
	<line class="st0" x1="634" y1="444" x2="634" y2="438.6"/>
</g>
<g transform="translate(91,450.6667)">
	<text transform="matrix(1 0 0 1 -7.5 17)" class="st1 st2 st3">-1</text>
</g>
<g transform="translate(181.5,450.6667)">
	<text transform="matrix(1 0 0 1 -14.5 17)" class="st1 st2 st3">-0.5</text>
</g>
<g transform="translate(272,450.6667)">
	<text transform="matrix(1 0 0 1 -5 17)" class="st1 st2 st3">0</text>
</g>
<g transform="translate(362.5,450.6667)">
	<text transform="matrix(1 0 0 1 -12 17)" class="st1 st2 st3">0.5</text>
</g>
<g transform="translate(453,450.6667)">
	<text transform="matrix(1 0 0 1 -5 17)" class="st1 st2 st3">1</text>
</g>
<g transform="translate(543.5,450.6667)">
	<text transform="matrix(1 0 0 1 -12 17)" class="st1 st2 st3">1.5</text>
</g>
<g transform="translate(634,450.6667)">
	<text transform="matrix(1 0 0 1 -5 17)" class="st1 st2 st3">2</text>
</g>
<g>
	<line class="st0" x1="91" y1="444" x2="91" y2="104.8"/>
	<line class="st0" x1="91" y1="444" x2="96.4" y2="444"/>
	<line class="st0" x1="91" y1="376.2" x2="96.4" y2="376.2"/>
	<line class="st0" x1="91" y1="308.3" x2="96.4" y2="308.3"/>
	<line class="st0" x1="91" y1="240.5" x2="96.4" y2="240.5"/>
	<line class="st0" x1="91" y1="172.7" x2="96.4" y2="172.7"/>
	<line class="st0" x1="91" y1="104.8" x2="96.4" y2="104.8"/>
</g>
<g transform="translate(84.3333,444)">
	<text transform="matrix(1 0 0 1 -29 6.5)" class="st1 st2 st3">-0.1</text>
</g>
<g transform="translate(84.3333,376.1667)">
	<text transform="matrix(1 0 0 1 -10 6.5)" class="st1 st2 st3">0</text>
</g>
<g transform="translate(84.3333,308.3333)">
	<text transform="matrix(1 0 0 1 -24 6.5)" class="st1 st2 st3">0.1</text>
</g>
<g transform="translate(84.3333,240.5)">
	<text transform="matrix(1 0 0 1 -24 6.5)" class="st1 st2 st3">0.2</text>
</g>
<g transform="translate(84.3333,172.6667)">
	<text transform="matrix(1 0 0 1 -24 6.5)" class="st1 st2 st3">0.3</text>
</g>
<g transform="translate(84.3333,104.8333)">
	<text transform="matrix(1 0 0 1 -24 6.5)" class="st1 st2 st3">0.4</text>
</g>
<g>
	<path class="st4" d="M90.9,364.7L90.9,364.7l1.9-1.1l1.8-1l1.8-1l1.8-1l1.8-1l1.8-0.9l1.8-0.8l1.8-0.7l1.8-0.6l1.8-0.5l1.8-0.4
		l1.8-0.2l1.8-0.1l1.8,0l1.8,0.1l1.8,0.3l1.8,0.4l1.8,0.5l1.8,0.5l1.8,0.5l1.8,0.6l1.8,0.7l1.8,0.8l1.8,0.9l1.8,1l1.8,1.1l1.8,1.2
		l1.8,1.3l1.8,1.3l1.8,1.3l1.8,1.2l1.8,1.2l1.8,1.1l1.8,0.9l1.8,0.8l1.8,0.7l1.8,0.6l1.8,0.5l1.8,0.4l1.8,0.3l1.8,0.2l1.8,0.1l1.8,0
		l1.8-0.1l1.8-0.1l1.8-0.2l1.8-0.3l1.8-0.4l1.8-0.5l1.8-0.5l1.8-0.5l1.8-0.4l1.8-0.3l1.8-0.3l1.8-0.2l1.8-0.1l1.8,0l1.8,0.1l1.8,0.3
		l1.8,0.4l1.8,0.5l1.8,0.6l1.8,0.7l1.8,0.7l1.8,0.8l1.8,0.7l1.8,0.7l1.8,0.6l1.8,0.5l1.8,0.3l1.8,0.2l1.8,0l1.8-0.2l1.8-0.5l1.8-0.7
		l1.8-1l1.8-1.2l1.8-1.5l1.8-1.8l1.8-2l1.8-2.3l1.8-2.6l1.8-2.8l1.8-3.1l1.8-3.3l1.8-3.5l1.8-3.7l1.8-3.9l1.8-4l1.8-4.1l1.8-4.2
		l1.8-4.3l1.8-4.5l1.8-4.6l1.8-4.7l1.8-4.9l1.8-5l1.8-5.1l1.8-5.1l1.8-5.2l1.8-5.3l1.8-5.3l1.8-5.3l1.8-5.2l1.8-5.2l1.8-5.1l1.8-4.9
		l1.8-4.6l1.8-4.4l1.8-4l1.8-3.7l1.8-3.3l1.8-2.8l1.8-2.4l1.8-2l1.8-1.5l1.8-1l1.8-0.6l1.8-0.1l1.8,0.3l1.8,0.7l1.8,1.1l1.8,1.4
		l1.8-0.7l1.8,2.8l1.8,2.4l1.8,6.6l1.8,2.5l1.8,3l1.8,2.6l1.8,2.7l1.8,3.1l1.8,2.9l1.8,5.3l1.8,2.4l1.8,3.9l1.8,3.8l1.8,1l1.8,1.8
		l1.8,6.5l1.8,7.1l1.8,3.1l1.8,0.2l1.8-0.2l1.8,3.3l1.8,2.6l1.8,5.5l1.8,1.3l1.8,2.3l1.8,1.9l1.8-1.6l1.8,4.5l1.8,6.8l1.8,0.6
		l1.8,1.9l1.8,4.4l1.8,1.7l1.8,2.1l1.8-1.4l1.8,0.4l1.8-2.1l1.8,3.2l1.8,3.2l1.8,2.7l1.8-0.1l1.8,3.7l1.8-3.5l1.8,0.7l1.8-0.7
		l1.8,0.4l1.8,3.5l1.8,0.7l1.8,1.5l1.8-0.3l1.8,4.5l1.8,0.4l1.8-1.2l1.8-0.1l1.8,0.4l1.8,5.5l1.8,3.5l1.8,2.1l1.8,1.4l1.8,0.1l1.8-7
		l1.8-0.4l1.8-4.1l1.8-1l1.8,0.5l1.8-2.1l1.8-1.7l1.8-0.6l1.8,0.4l1.8-3l1.8,2.5l1.8-5.7l1.8-0.5l1.8-3l1.8-1.3l1.8-7.6l1.8-0.9
		l1.8-3l1.8,0.1l1.8-9.4l1.8-1.4l1.8-4.8l1.8-11.1l1.8-9.6l1.8-6.2l1.8-4.5l1.8-8.9l1.8-4.3l1.8-4.6l1.8-18l1.8-3.7l1.8-6.7l1.8-4.2
		l1.8-3.2l1.8-2.2l1.8-0.4l1.8-2.2l1.8-1l1.8-1.9l1.8-4l1.8,1.7l1.8,0.1l1.8-5.3l1.8,1.6l1.8,1.8l1.8,1.6l1.8,2.1l1.8,2.4l1.8,5.2
		l1.8,7.1l1.8,2.6l1.8,1.7l1.8,1.4l1.8,3.1l1.8,3.1l1.8,2.4l1.8-0.7l1.8,1.7l1.8,3.7l1.8,5.4l1.8,4l1.8,5.1l1.8,9l1.8,2.4l1.8,1.9
		l1.8-0.1l1.8,4.8l1.8,4.5l1.8,3.6l1.8,9.5l1.8-4.6l1.8,3.6l1.8-1.3l1.8,1.5l1.8,2.8l1.8,1.2l1.8,2l1.8,1.8l1.8,1.4l1.8-1.7l1.8-1.1
		l1.8,3.5l1.8-0.8l1.8-0.3l1.8-2l1.8-2.4l1.8-2.1l1.8,6.6l1.8-2.5l1.8-3.1l1.8-4.4l1.8-1.7l1.8-6.2l1.8-5.4l1.8-5.2l1.8-8.3l1.8-3
		l1.8-4.6l1.8-4.4l1.8-4.1l1.8-2.8l1.8-3.5l1.8-1.7l1.8-4.3l1.8-2.3l1.8-0.7l1.8-1.7l1.8,1.9l1.8-0.7l1.8-5.1l1.8-4.8l1.8-0.1
		l1.8,0.9l1.8,4.8l1.8-1.4l1.8,2.8l0.1,0"/>
	<path class="st5" d="M90.9,376.4L90.9,376.4l1.9-1.5l1.8-1.4l1.8-1.4l1.8-1.4l1.8-1.4l1.8-1.4l1.8-1.4l1.8-1.3l1.8-1.3l1.8-1.3
		l1.8-1.3l1.8-1.3l1.8-1.3l1.8-1.2l1.8-1.2l1.8-1.1l1.8-1l1.8-0.9l1.8-0.8l1.8-0.7l1.8-0.6l1.8-0.5l1.8-0.4l1.8-0.2l1.8-0.1l1.8,0.1
		l1.8,0.2l1.8,0.3l1.8,0.3l1.8,0.3l1.8,0.3l1.8,0.3l1.8,0.2l1.8,0.2l1.8,0.1l1.8,0l1.8-0.1l1.8-0.2l1.8-0.2l1.8-0.2l1.8-0.2l1.8-0.2
		l1.8-0.2l1.8-0.2l1.8-0.1l1.8,0l1.8,0.1l1.8,0.1l1.8,0.3l1.8,0.4l1.8,0.7l1.8,0.9l1.8,1.1l1.8,1.3l1.8,1.5l1.8,1.7l1.8,1.8l1.8,1.9
		l1.8,2l1.8,2l1.8,2.1l1.8,2l1.8,2l1.8,1.8l1.8,1.6l1.8,1.4l1.8,1.1l1.8,0.8l1.8,0.5l1.8,0.2l1.8-0.2l1.8-0.6l1.8-0.9l1.8-1.3
		l1.8-1.7l1.8-2l1.8-2.3l1.8-2.6l1.8-2.9l1.8-3.3l1.8-3.6l1.8-3.8l1.8-4.1l1.8-4.2l1.8-4.4l1.8-4.5l1.8-4.6l1.8-4.7l1.8-4.8l1.8-4.9
		l1.8-4.9l1.8-4.9l1.8-5l1.8-5l1.8-5l1.8-5l1.8-5l1.8-5l1.8-5l1.8-5l1.8-5.1l1.8-5.1l1.8-5.1l1.8-5.1l1.8-5.1l1.8-5.1l1.8-5l1.8-4.9
		l1.8-4.7l1.8-4.5l1.8-4.2l1.8-3.9l1.8-3.6l1.8-3.3l1.8-3l1.8-2.7l1.8-2.3l1.8-2l1.8-1.6l1.8-1.1l1.8-0.6l1.8-0.2l1.8,0.2l1.8-1.9
		l1.8,1.4l1.8,1.4l1.8,5.9l1.8,1.8l1.8,2.5l1.8,2.2l1.8,2.3l1.8,1.2l1.8,2.7l1.8,5.2l1.8,2.2l1.8,4.5l1.8,3.9l1.8,1.1l1.8,2.8
		l1.8,6.7l1.8,8.1l1.8,3.3l1.8-1.3l1.8-2.3l1.8,3.3l1.8,3l1.8,5.1l1.8,2.3l1.8,2.5l1.8,1.4l1.8,2.1l1.8,4.8l1.8,5.3l1.8,1.1l1.8,2
		l1.8,6.4l1.8,2.1l1.8,2.9l1.8,1.1l1.8-0.1l1.8-1.7l1.8,4.7l1.8,3.2l1.8,2.3l1.8,1.3l1.8,4.5l1.8-2.9l1.8,1.5l1.8-0.6l1.8,1.3
		l1.8,3.4l1.8,1.6l1.8,6.2l1.8,0.3l1.8,4.6l1.8,0.6l1.8-2.7l1.8,0.4l1.8,0.7l1.8,6.8l1.8,4.7l1.8,1.6l1.8,0.7l1.8,2.5l1.8-5.7l1.8,0
		l1.8-3.8l1.8-0.6l1.8,1.6l1.8-1.4l1.8,1.1l1.8,0.6l1.8,0.5l1.8-3.3l1.8,2.9l1.8-4.8l1.8,1.2l1.8-1l1.8,0.5l1.8-7l1.8-1.8l1.8-3.5
		l1.8-3.2l1.8-2.9l1.8-0.8l1.8-4.5l1.8-9.4l1.8-9.7l1.8-7.9l1.8-4.9l1.8-10.1l1.8-4.9l1.8-5.1l1.8-15.6l1.8-5.4l1.8-7.7l1.8-3.6
		l1.8-4l1.8-2.5l1.8-0.6l1.8-2.7l1.8-1.4l1.8-2.2l1.8-6.1l1.8,1.2l1.8-0.3l1.8-7.8l1.8,0.8l1.8,1.1l1.8-0.1l1.8,3.4l1.8,1.9l1.8,5.8
		l1.8,3.5l1.8,1.7l1.8-0.5l1.8,0.4l1.8,3.2l1.8,2.7l1.8,1.7l1.8-4.8l1.8,2.6l1.8,4.2l1.8,5.8l1.8,4.9l1.8,7.2l1.8,11.5l1.8,4.5
		l1.8-1.5l1.8,0.9l1.8,4.9l1.8,5.4l1.8,3.6l1.8,8.1l1.8-7.9l1.8,3.8l1.8-0.4l1.8,2.8l1.8,3.8l1.8,1.5l1.8,3l1.8,2.4l1.8,1.8l1.8-1.8
		l1.8,0.9l1.8-1.3l1.8-2.7l1.8-0.1l1.8-1.2l1.8-0.7l1.8-0.7l1.8,7.2l1.8-2.9l1.8-4.5l1.8-2.9l1.8-1.6l1.8-2.3l1.8-2.5l1.8-2.9
		l1.8-5.4l1.8-1.1l1.8-2.5l1.8-2.4l1.8-2.2l1.8-1.6l1.8-2l1.8,1.6l1.8-3.5l1.8-1.5l1.8-0.6l1.8,0.2l1.8,3.8l1.8,1.2l1.8-2.5l1.8-5.7
		l1.8-0.3l1.8-0.8l1.8,2.5l1.8-3.9l1.8-1.7l0.1,0"/>
	<line class="st6" x1="272" y1="444" x2="272" y2="104"/>
</g>
<g>
	<path d="M243,132.6h25.3v-27.7H243V132.6z"/>
</g>
<g>
	<path class="st7" d="M243,132.6h25.3v-27.7H243V132.6"/>
</g>
<g>
	<path d="M319.1,132.6h38v-27.7h-38V132.6z"/>
</g>
<g>
	<path class="st7" d="M319.1,132.6h38v-27.7h-38V132.6"/>
</g>
<g>
	<path d="M366.1,132.6h36.2v-27.7h-36.2V132.6z"/>
</g>
<g>
	<path class="st7" d="M366.1,132.6h36.2v-27.7h-36.2V132.6"/>
</g>
<g transform="translate(564.878,62.5581)">
	<text transform="matrix(1 0 0 1 23.1754 71.9937)" class="st2 st8">LPAG</text>
</g>
<g>
	<line class="st4" x1="534.2" y1="128.6" x2="584.3" y2="128.6"/>
</g>
<g transform="translate(564.878,83.2791)">
	<text transform="matrix(1 0 0 1 23.1754 71.9937)" class="st2 st8">VLPAG</text>
</g>
<g>
	<line class="st5" x1="534.2" y1="149.3" x2="584.3" y2="149.3"/>
</g>
</svg>
