<?xml version="1.0" encoding="utf-8"?>
<!-- Generator: Adobe Illustrator 28.2.0, SVG Export Plug-In . SVG Version: 6.00 Build 0)  -->
<svg version="1.1" id="Layer_1" xmlns="http://www.w3.org/2000/svg" xmlns:xlink="http://www.w3.org/1999/xlink" x="0px" y="0px"
	 viewBox="0 0 560 309" style="enable-background:new 0 0 560 309;" xml:space="preserve">
<style type="text/css">
	.st0{fill:none;stroke:#262626;stroke-width:0.6667;stroke-linecap:square;stroke-linejoin:round;stroke-miterlimit:10;}
	.st1{fill:#262626;}
	.st2{font-family:'ArialMT';}
	.st3{font-size:13.3333px;}
	.st4{font-family:'Arial-BoldMT';}
	.st5{font-size:14.6667px;}
	.st6{fill:none;stroke:#E62E2E;stroke-width:0.6667;stroke-linejoin:round;stroke-miterlimit:10;}
	.st7{fill:none;stroke:#2EE6E6;stroke-width:0.6667;stroke-linejoin:round;stroke-miterlimit:10;}
	.st8{fill:none;stroke:#000000;stroke-width:0.6667;stroke-linejoin:round;stroke-miterlimit:10;}
	.st9{fill:none;stroke:#000000;stroke-width:0.6667;stroke-linecap:square;stroke-miterlimit:10;}
	.st10{font-size:12px;}
</style>
<g>
	<g>
		<line class="st0" x1="73" y1="275" x2="507" y2="275"/>
		<line class="st0" x1="73" y1="275" x2="73" y2="270.7"/>
		<line class="st0" x1="145.3" y1="275" x2="145.3" y2="270.7"/>
		<line class="st0" x1="217.7" y1="275" x2="217.7" y2="270.7"/>
		<line class="st0" x1="290" y1="275" x2="290" y2="270.7"/>
		<line class="st0" x1="362.3" y1="275" x2="362.3" y2="270.7"/>
		<line class="st0" x1="434.7" y1="275" x2="434.7" y2="270.7"/>
		<line class="st0" x1="507" y1="275" x2="507" y2="270.7"/>
	</g>
	<g transform="translate(73,280.3333)">
		<text transform="matrix(1 0 0 1 -6 14)" class="st1 st2 st3">-1</text>
	</g>
	<g transform="translate(145.3333,280.3333)">
		<text transform="matrix(1 0 0 1 -11.5 14)" class="st1 st2 st3">-0.5</text>
	</g>
	<g transform="translate(217.6667,280.3333)">
		<text transform="matrix(1 0 0 1 -4 14)" class="st1 st2 st3">0</text>
	</g>
	<g transform="translate(290,280.3333)">
		<text transform="matrix(1 0 0 1 -9.5 14)" class="st1 st2 st3">0.5</text>
	</g>
	<g transform="translate(362.3333,280.3333)">
		<text transform="matrix(1 0 0 1 -4 14)" class="st1 st2 st3">1</text>
	</g>
	<g transform="translate(434.6667,280.3333)">
		<text transform="matrix(1 0 0 1 -9.5 14)" class="st1 st2 st3">1.5</text>
	</g>
	<g transform="translate(507,280.3333)">
		<text transform="matrix(1 0 0 1 -4 14)" class="st1 st2 st3">2</text>
	</g>
	<g>
		<line class="st0" x1="73" y1="275" x2="73" y2="107"/>
		<line class="st0" x1="73" y1="275" x2="77.3" y2="275"/>
		<line class="st0" x1="73" y1="233" x2="77.3" y2="233"/>
		<line class="st0" x1="73" y1="191" x2="77.3" y2="191"/>
		<line class="st0" x1="73" y1="149" x2="77.3" y2="149"/>
		<line class="st0" x1="73" y1="107" x2="77.3" y2="107"/>
	</g>
	<g transform="translate(67.6667,275)">
		<text transform="matrix(1 0 0 1 -23 5.5)" class="st1 st2 st3">-0.1</text>
	</g>
	<g transform="translate(67.6667,233)">
		<text transform="matrix(1 0 0 1 -8 5.5)" class="st1 st2 st3">0</text>
	</g>
	<g transform="translate(67.6667,191)">
		<text transform="matrix(1 0 0 1 -19 5.5)" class="st1 st2 st3">0.1</text>
	</g>
	<g transform="translate(67.6667,149)">
		<text transform="matrix(1 0 0 1 -19 5.5)" class="st1 st2 st3">0.2</text>
	</g>
	<g transform="translate(67.6667,107)">
		<text transform="matrix(1 0 0 1 -19 5.5)" class="st1 st2 st3">0.3</text>
	</g>
	<g transform="translate(67.6667,65)">
		<text transform="matrix(1 0 0 1 -19 5.5)" class="st1 st2 st3">0.4</text>
	</g>
	<g transform="translate(67.6667,23)">
		<text transform="matrix(1 0 0 1 -19 5.5)" class="st1 st2 st3">0.5</text>
	</g>
	<g transform="translate(290.0003,20.25)">
		<text transform="matrix(1 0 0 1 -26 -4)" class="st4 st5">SupCol</text>
	</g>
	<g>
		<path class="st6" d="M72.9,236.2L72.9,236.2l1.5,1.5l1.4,1.4l1.4,1.3l1.4,1.1l1.4,0.7l1.4,0.5l1.4,0.5l1.4,0.3l1.4,0l1.4-0.4
			l1.4-0.8l1.4-0.9l1.4-1l1.4-1l1.4-1l1.4-1l1.4-1l1.4-1l1.4-0.9l1.4-1l1.4-1.3l1.4-1.3l1.4-1.5l1.4-1.7l1.4-1.6l1.4-1.6l1.4-1.7
			l1.4-1.4l1.4-1l1.4-0.6l1.4-0.3l1.4-0.3l1.4-0.3l1.4-0.2l1.4-0.3l1.4-0.5l1.4-0.8l1.4-1l1.4-1.2l1.4-1.1l1.4-0.8l1.4-0.6l1.4-0.4
			l1.4-0.1l1.4,0.1l1.4,0.2l1.4,0.4l1.4,0.3l1.4,0l1.4-0.4l1.4-0.8l1.4-1.1l1.4-1.5l1.4-1.7l1.4-1.8l1.4-1.6l1.4-1.3l1.4-0.8
			l1.4-0.4l1.4-0.3l1.4-0.1l1.4,0.1l1.4,0.2l1.4,0.4l1.4,0.5l1.4,0.4l1.4,0.5l1.4,0.9l1.4,1.3l1.4,1.7l1.4,1.9l1.4,2.3l1.4,2.5
			l1.4,2.5l1.4,2.4l1.4,2.3l1.4,2.2l1.4,1.9l1.4,1.9l1.4,2l1.4,1.8l1.4,1.4l1.4,0.9l1.4,0.4l1.4-0.3l1.4-0.7l1.4-1.3l1.4-1.9
			l1.4-2.4l1.4-2.5l1.4-2.7l1.4-2.8l1.4-2.8l1.4-3.1l1.4-3.4l1.4-3.6l1.4-4l1.4-4.3l1.4-4.5l1.4-4.9l1.4-4.9l1.4-4.5l1.4-4l1.4-3.4
			l1.4-2.8l1.4-2.5l1.4-2.3l1.4-2.3l1.4-2.4l1.4-2.6l1.4-2.4l1.4-2.3l1.4-2.2l1.4-1.9l1.4-1.6l1.4-1.3l1.4-0.9l1.4-0.5l1.4-0.3
			l1.4-0.1l1.4,0l1.4-0.2l1.4-0.4l1.4,1.2l1.4-0.3l1.4,0l1.4,1.3l1.4,0.7l1.4,1.6l1.4,1.6l1.4,2.1l1.4,2.2l1.4,2.9l1.4,2.7l1.4,3.2
			l1.4,4.2l1.4,4.1l1.4,4.3l1.4,3.4l1.4,3.2l1.4,3.1l1.4,1.9l1.4-0.2l1.4,0.8l1.4-0.8l1.4,0l1.4-0.2l1.4,0.4l1.4-0.1l1.4-0.4
			l1.4-0.7l1.4-1l1.4,1.1l1.4-0.4l1.4-1.7l1.4-0.7l1.4-2.5l1.4-3l1.4-4l1.4-1.9l1.4-2.2l1.4,0.2l1.4,0.4l1.4,1.5l1.4,0.9l1.4-2.2
			l1.4,2.2l1.4,0.8l1.4-0.2l1.4,1l1.4,0.9l1.4,0.8l1.4-0.1l1.4,1.8l1.4,0.9l1.4,1.3l1.4-0.3l1.4,0.3l1.4,0.4l1.4,1.8l1.4,0.5
			l1.4,0.3l1.4,0.3l1.4,0.9l1.4,1.2l1.4,1.1l1.4,2.9l1.4-0.5l1.4,1.2l1.4,1.3l1.4-1.6l1.4,0l1.4,1.8l1.4,5l1.4,0.9l1.4,1.2l1.4,1
			l1.4,1.6l1.4-0.2l1.4,0.9l1.4,1.3l1.4-1.3l1.4-2.3l1.4-0.5l1.4-2.1l1.4-2.1l1.4-1.1l1.4-3.9l1.4-4.7l1.4-2.9l1.4-4.6l1.4-2.9
			l1.4-2.3l1.4-2.2l1.4-2.9l1.4-6.1l1.4-8l1.4-4.1l1.4-4.2l1.4-3.2l1.4-2.8l1.4-1.5l1.4-1.5l1.4-2.9l1.4-0.1l1.4,2.4l1.4,2.1
			l1.4,2.2l1.4,2.3l1.4,2.6l1.4,3.5l1.4,2.6l1.4,3.2l1.4,3.3l1.4,4.3l1.4,5.8l1.4,4.3l1.4,6.2l1.4,4.3l1.4,4.3l1.4,2.2l1.4,2.3
			l1.4,1.7l1.4,0.6l1.4,0.3l1.4-0.5l1.4,0.7l1.4,0.3l1.4-2l1.4-1l1.4-0.5l1.4,0l1.4,0.1l1.4,0.4l1.4-0.3l1.4-0.7l1.4-1.5l1.4-1
			l1.4,0l1.4,0.2l1.4,0.7l1.4,0.6l1.4,0.8l1.4,1.1l1.4,1.1l1.4,0.3l1.4,1.1l1.4,2.8l1.4,0.3l1.4-0.6l1.4-3.3l1.4,0.5l1.4-0.9
			l1.4,0.7l1.4,0.7l1.4,1.4l1.4,0.3l1.4-0.2l1.4,0.5l1.4,1.2l1.4,3.2l1.4,1.1l1.4,1.1l1.4,1.1l1.4,0.2l1.4,1.3l1.4,0.2l1.4,0.2
			l1.4,1.5l1.4-0.7l1.4-0.2l1.4,1.1l1.4-0.2l1.4,0.3l1.4-0.7l1.4-0.3l1.4-2.1l1.4-4.6l1.4-4.6l1.4,1.4l0.1,0"/>
		<path class="st7" d="M72.9,237.3L72.9,237.3l1.5,0.8l1.4,0.9l1.4,0.8l1.4,0.5l1.4,0.4l1.4,0.5l1.4,0.8l1.4,0.9l1.4,0.7l1.4,0.4
			l1.4,0l1.4-0.2l1.4-0.5l1.4-0.8l1.4-1l1.4-1l1.4-0.9l1.4-0.7l1.4-0.6l1.4-0.4l1.4-0.5l1.4-0.6l1.4-0.7l1.4-0.8l1.4-1l1.4-1.2
			l1.4-1.4l1.4-1.5l1.4-1.2l1.4-0.9l1.4-0.6l1.4-0.5l1.4-0.2l1.4,0.1l1.4,0.2l1.4-0.1l1.4-0.5l1.4-1l1.4-1.4l1.4-1.6l1.4-1.4
			l1.4-1.2l1.4-0.7l1.4-0.4l1.4-0.2l1.4-0.2l1.4-0.3l1.4-0.6l1.4-1l1.4-1.4l1.4-1.9l1.4-2.1l1.4-2.4l1.4-2.5l1.4-2.5l1.4-2.1
			l1.4-1.6l1.4-1.1l1.4-0.8l1.4-0.6l1.4-0.4l1.4-0.3l1.4-0.2l1.4,0l1.4,0.3l1.4,0.4l1.4,0.7l1.4,1l1.4,1.4l1.4,2l1.4,2.4l1.4,2.7
			l1.4,2.8l1.4,2.7l1.4,2.6l1.4,2.4l1.4,2.1l1.4,1.9l1.4,1.6l1.4,1.5l1.4,1.3l1.4,0.9l1.4,0.3l1.4-0.3l1.4-0.8l1.4-1.3l1.4-1.7
			l1.4-2.2l1.4-2.6l1.4-3.1l1.4-3.4l1.4-3.4l1.4-3.5l1.4-3.7l1.4-4l1.4-4.1l1.4-4.4l1.4-4.8l1.4-5.1l1.4-5.4l1.4-5.6l1.4-5.4
			l1.4-4.9l1.4-4.3l1.4-3.8l1.4-3.2l1.4-2.7l1.4-2.3l1.4-2.1l1.4-1.9l1.4-1.8l1.4-1.9l1.4-1.9l1.4-1.8l1.4-1.6l1.4-1.5l1.4-1.3
			l1.4-0.9l1.4-0.7l1.4-0.4l1.4-0.2l1.4-0.2l1.4-0.4l1.4,0l1.4-0.7l1.4-0.8l1.4-0.9l1.4-0.5l1.4,0l1.4,0.3l1.4,0.8l1.4,0.8l1.4,1.9
			l1.4,1.8l1.4,2l1.4,3.4l1.4,3.3l1.4,4.3l1.4,3.4l1.4,3.6l1.4,2.8l1.4,2.7l1.4,1.5l1.4,1.4l1.4,1l1.4,1.6l1.4,1.5l1.4,1.2l1.4,0.8
			l1.4,0.7l1.4,0.5l1.4-0.5l1.4,1.9l1.4,0.9l1.4-0.1l1.4,2l1.4-0.1l1.4-0.6l1.4-2.1l1.4-1.7l1.4-0.2l1.4,0.8l1.4,0.5l1.4,1.1
			l1.4,0.5l1.4-1.5l1.4,2.4l1.4,0.5l1.4-1.3l1.4-0.2l1.4,0.1l1.4-0.4l1.4-0.2l1.4,0.8l1.4,0.1l1.4,0.6l1.4,0.3l1.4-1.2l1.4-1
			l1.4,0.5l1.4-0.6l1.4-0.3l1.4,0.1l1.4-0.6l1.4,0.8l1.4-0.2l1.4,1.3l1.4-2.3l1.4-0.5l1.4,0.9l1.4-0.6l1.4,1.1l1.4,1.6l1.4,5.2
			l1.4,1.4l1.4,2.2l1.4,1.1l1.4,2l1.4,1.7l1.4,1.9l1.4,1.5l1.4-0.7l1.4-1.5l1.4,1.6l1.4-1.3l1.4-1.8l1.4-2.1l1.4-1.7l1.4-4.1
			l1.4-1.9l1.4-3.3l1.4-2.1l1.4-2l1.4-3l1.4-2.6l1.4-5.6l1.4-9l1.4-3.6l1.4-3.9l1.4-3.4l1.4-2.9l1.4-2l1.4-1.7l1.4-2.9l1.4,1.1
			l1.4,1.9l1.4,0l1.4,1l1.4,0.9l1.4,1.1l1.4,1.5l1.4,1l1.4,1.4l1.4,2.4l1.4,2.5l1.4,3.8l1.4,3.1l1.4,4.5l1.4,4.3l1.4,5.7l1.4,2
			l1.4,3.8l1.4,3.5l1.4,3.1l1.4,2.9l1.4,1.8l1.4,4.3l1.4,2.6l1.4,0.3l1.4,1.9l1.4,1.1l1.4,2.2l1.4,2l1.4,1.5l1.4,0.3l1.4,0.7
			l1.4-0.6l1.4-0.5l1.4-0.2l1.4,0.3l1.4,0.2l1.4,0.2l1.4,0.4l1.4-0.3l1.4,2l1.4-1l1.4-0.5l1.4,1.4l1.4-0.8l1.4-1.5l1.4-4.6l1.4,0.7
			l1.4-0.4l1.4,0.8l1.4,1.1l1.4,0.4l1.4-0.8l1.4-0.9l1.4-0.3l1.4-0.6l1.4,2.5l1.4-0.8l1.4-0.9l1.4-0.9l1.4-2.5l1.4-0.2l1.4-0.7
			l1.4-0.7l1.4,0.4l1.4-1.9l1.4,0.3l1.4,1.3l1.4,0.9l1.4-0.1l1.4-1.4l1.4-0.7l1.4-1.2l1.4-5.5l1.4-2.5l1.4,2.3l0.1,0"/>
		<line class="st8" x1="217.7" y1="275" x2="217.7" y2="107"/>
	</g>
	<g>
		<path d="M197.4,65h30.4V23h-30.4V65z"/>
	</g>
	<g>
		<path class="st9" d="M197.4,65h30.4V23h-30.4V65"/>
	</g>
	<g>
		<path d="M261.1,65h23.1V23h-23.1V65z"/>
	</g>
	<g>
		<path class="st9" d="M261.1,65h23.1V23h-23.1V65"/>
		<path class="st9" d="M287.1,65L287.1,65V23l0,0V65"/>
	</g>
	<g>
		<path d="M334.8,65h13V23h-13V65z"/>
	</g>
	<g>
		<path class="st9" d="M334.8,65h13V23h-13V65"/>
	</g>
	<g>
		<path d="M369.6,65h13V23h-13V65z"/>
	</g>
	<g>
		<path class="st9" d="M369.6,65h13V23h-13V65"/>
	</g>
	<g>
		<path d="M410.1,65h17.4V23h-17.4V65z"/>
	</g>
	<g>
		<path class="st9" d="M410.1,65h17.4V23h-17.4V65"/>
	</g>
	<g>
		<path d="M489.6,65h8.7V23h-8.7V65z"/>
	</g>
	<g>
		<path class="st9" d="M489.6,65h8.7V23h-8.7V65"/>
	</g>
	<g transform="translate(515,180)">
		<text transform="matrix(1 0 0 1 0.48 -76.8674)" class="st2 st10">LPAG</text>
	</g>
	<g>
		<line class="st6" x1="472.5" y1="98.1" x2="512.5" y2="98.1"/>
	</g>
	<g transform="translate(515,196.5)">
		<text transform="matrix(1 0 0 1 0.48 -76.8674)" class="st2 st10">SupCol</text>
	</g>
	<g>
		<line class="st7" x1="472.5" y1="114.6" x2="512.5" y2="114.6"/>
	</g>
</g>
</svg>
