<?xml version="1.0" encoding="utf-8"?>
<!-- Generator: Adobe Illustrator 28.2.0, SVG Export Plug-In . SVG Version: 6.00 Build 0)  -->
<svg version="1.1" id="Layer_1" xmlns="http://www.w3.org/2000/svg" xmlns:xlink="http://www.w3.org/1999/xlink" x="0px" y="0px"
	 viewBox="0 0 589.4 324" style="enable-background:new 0 0 589.4 324;" xml:space="preserve">
<style type="text/css">
	.st0{fill:none;stroke:#262626;stroke-width:0.6667;stroke-linejoin:round;stroke-miterlimit:10;}
	.st1{fill:none;stroke:#000000;stroke-width:0.6667;stroke-miterlimit:10;}
	.st2{fill:#262626;}
	.st3{font-family:'ArialMT';}
	.st4{font-size:10.6667px;}
	.st5{fill:#FF0000;}
</style>
<g transform="translate(175.0002,21.8)">
	
		<text transform="matrix(6.123234e-17 -1 1 6.123234e-17 -93.1705 -67.6494)" style="font-family:'Arial-BoldMT'; font-size:11.7333px;">Self</text>
</g>
<g>
	<line class="st0" x1="79.1" y1="24" x2="79.1" y2="288"/>
</g>
<g transform="matrix(0.4964,0,0,0.4992,175,52.9756)">
	<g>
		<defs>
			<path id="SVGID_1_" d="M-178.6,25.8V0h-14.7v25.8H-178.6z M-175.1,58V32.2h-18.1V58H-175.1z M-172,187v-25.8h-21.2V187H-172z
				 M-167.3,219.3v-25.8h-26v25.8H-167.3z M-178.7,283.8V258h-14.6v25.8H-178.7z M-177.6,316v-25.8h-15.7V316H-177.6z M-176,445
				v-25.8h-17.3V445H-176z"/>
		</defs>
		<clipPath id="SVGID_00000047044292583016124230000003188215313433629321_">
			<use xlink:href="#SVGID_1_"  style="overflow:visible;"/>
		</clipPath>
		<g style="clip-path:url(#SVGID_00000047044292583016124230000003188215313433629321_);enable-background:new    ;">
			<image style="overflow:visible;" width="26" height="445" xlink:href="2E68E5CC.png"  transform="matrix(1 0 0 1 -193.2638 0)">
			</image>
		</g>
	</g>
</g>
<g>
	<path class="st1" d="M79.1,36.9L79.1,36.9v12.9l0,0V36.9z"/>
	<path class="st1" d="M79.1,53h7.3v12.9h-7.3V53z"/>
	<path class="st1" d="M79.1,69.1h9V82h-9V69.1z"/>
	<path class="st1" d="M79.1,85.2L79.1,85.2V98l0,0V85.2z"/>
	<path class="st1" d="M79.1,101.3L79.1,101.3v12.9l0,0V101.3z"/>
	<path class="st1" d="M79.1,117.4L79.1,117.4v12.9l0,0V117.4z"/>
	<path class="st1" d="M79.1,133.5h10.5v12.9H79.1V133.5z"/>
	<path class="st1" d="M79.1,149.6H92v12.9H79.1V149.6z"/>
	<path class="st1" d="M79.1,181.8h7.2v12.9h-7.2V181.8z"/>
	<path class="st1" d="M79.1,197.9h7.8v12.9h-7.8V197.9z"/>
	<path class="st1" d="M79.1,214L79.1,214v12.9l0,0V214z"/>
	<path class="st1" d="M79.1,230L79.1,230v12.9l0,0V230z"/>
	<path class="st1" d="M79.1,246.1L79.1,246.1V259l0,0V246.1z"/>
	<path class="st1" d="M79.1,262.2h8.6v12.9h-8.6V262.2z"/>
</g>
<g transform="translate(152.2267,59.4146)">
	<text transform="matrix(1 0 0 1 -130.9362 4)" class="st2 st3 st4">SupCol</text>
</g>
<g transform="translate(152.2267,107.7073)">
	<text transform="matrix(1 0 0 1 -132.9362 4)" class="st2 st3 st4">DLPAG</text>
</g>
<g transform="translate(152.2267,156)">
	<text transform="matrix(1 0 0 1 -124.9362 4)" class="st2 st3 st4">LPAG</text>
</g>
<g transform="translate(152.2267,204.2927)">
	<text transform="matrix(1 0 0 1 -131.9362 4)" class="st2 st3 st4">VLPAG</text>
</g>
<g transform="translate(152.2267,252.5854)">
	<text transform="matrix(1 0 0 1 -111.9362 4)" class="st2 st3 st4">DR</text>
</g>
<g transform="translate(223.0002,21.8)">
	
		<text transform="matrix(6.123234e-17 -1 1 6.123234e-17 -114.6498 -62.8692)" style="font-family:'Arial-BoldMT'; font-size:11.7333px;">Other</text>
</g>
<g>
	<line class="st0" x1="105.8" y1="24" x2="105.8" y2="288"/>
</g>
<g transform="matrix(0.4862,0,0,0.4995,223,36.878)">
	<g>
		<defs>
			<path id="SVGID_00000052096057429100648610000011105947284204467122_" d="M-218.2,25.8V0H-241v25.8H-218.2z M-227.9,58V32.2H-241
				V58H-227.9z M-218,90.2V64.5h-23v25.8H-218z M-224.5,251.4v-25.8H-241v25.8H-224.5z M-227.7,315.9v-25.8H-241v25.8H-227.7z
				 M-225.8,348.1v-25.8H-241v25.8H-225.8z M-228.8,477v-25.8H-241V477H-228.8z"/>
		</defs>
		<clipPath id="SVGID_00000080184771861011293460000013607083985232166806_">
			<use xlink:href="#SVGID_00000052096057429100648610000011105947284204467122_"  style="overflow:visible;"/>
		</clipPath>
		<g style="clip-path:url(#SVGID_00000080184771861011293460000013607083985232166806_);enable-background:new    ;">
			<image style="overflow:visible;" width="23" height="477" xlink:href="2E68E5CC.jpg"  transform="matrix(1 0 0 1 -241.0449 0)">
			</image>
		</g>
	</g>
</g>
<g>
	<path class="st1" d="M105.8,36.9h11.1v12.9h-11.1V36.9z"/>
	<path class="st1" d="M105.8,53h6.4v12.9h-6.4V53z"/>
	<path class="st1" d="M105.8,69.1H117V82h-11.2V69.1z"/>
	<path class="st1" d="M105.8,85.2L105.8,85.2V98l0,0V85.2z"/>
	<path class="st1" d="M105.8,117.4L105.8,117.4v12.9l0,0V117.4z"/>
	<path class="st1" d="M105.8,133.5L105.8,133.5v12.9l0,0V133.5z"/>
	<path class="st1" d="M105.8,149.6h8v12.9h-8V149.6z"/>
	<path class="st1" d="M105.8,165.7L105.8,165.7v12.9l0,0V165.7z"/>
	<path class="st1" d="M105.8,181.8h6.5v12.9h-6.5V181.8z"/>
	<path class="st1" d="M105.8,197.9h7.4v12.9h-7.4V197.9z"/>
	<path class="st1" d="M105.8,214L105.8,214v12.9l0,0V214z"/>
	<path class="st1" d="M105.8,230L105.8,230v12.9l0,0V230z"/>
	<path class="st1" d="M105.8,262.2h5.9v12.9h-5.9V262.2z"/>
</g>
<g transform="translate(270.0002,21.8)">
	
		<text transform="matrix(6.123234e-17 -1 1 6.123234e-17 -135.7139 -59.1729)" style="font-family:'Arial-BoldMT'; font-size:11.7333px;">POSelf</text>
</g>
<g>
	<line class="st0" x1="131.5" y1="24" x2="131.5" y2="288"/>
</g>
<g transform="matrix(0.478,0,0,0.4983,270,149.561)">
	<g>
		<defs>
			<path id="SVGID_00000117638144241895901550000001472668697878738580_" d="M-278.6,25.8V0h-11v25.8H-278.6z M-270.9,90.5V64.6
				h-18.8v25.8H-270.9z M-270.7,122.8V96.9h-19v25.8H-270.7z M-272.1,252v-25.8h-17.6V252H-272.1z"/>
		</defs>
		<clipPath id="SVGID_00000080205209590658759660000005031004632229370016_">
			<use xlink:href="#SVGID_00000117638144241895901550000001472668697878738580_"  style="overflow:visible;"/>
		</clipPath>
		<g style="clip-path:url(#SVGID_00000080205209590658759660000005031004632229370016_);enable-background:new    ;">
			<image style="overflow:visible;" width="19" height="252" xlink:href="2E68E5CB.jpg"  transform="matrix(1 0 0 1 -289.6566 0)">
			</image>
		</g>
	</g>
</g>
<g>
	<path class="st1" d="M131.5,36.9L131.5,36.9v12.9l0,0V36.9z"/>
	<path class="st1" d="M131.5,53L131.5,53v12.9l0,0V53z"/>
	<path class="st1" d="M131.5,85.2L131.5,85.2V98l0,0V85.2z"/>
	<path class="st1" d="M131.5,133.5L131.5,133.5v12.9l0,0V133.5z"/>
	<path class="st1" d="M131.5,149.6h5.3v12.9h-5.3V149.6z"/>
	<path class="st1" d="M131.5,181.8h9v12.9h-9V181.8z"/>
	<path class="st1" d="M131.5,197.9h9.1v12.9h-9.1V197.9z"/>
	<path class="st1" d="M131.5,214L131.5,214v12.9l0,0V214z"/>
	<path class="st1" d="M131.5,262.2h8.4v12.9h-8.4V262.2z"/>
</g>
<g transform="translate(318.0003,21.8)">
	
		<text transform="matrix(6.123234e-17 -1 1 6.123234e-17 -157.1928 -54.3926)" style="font-family:'Arial-BoldMT'; font-size:11.7333px;">POOther</text>
</g>
<g>
	<line class="st0" x1="158.3" y1="24" x2="158.3" y2="288"/>
</g>
<g transform="matrix(0.493,0,0,0.4983,318,149.561)">
	<g>
		<defs>
			<path id="SVGID_00000067944908514255038510000003044313744465815426_" d="M-311.4,25.8V0H-324v25.8H-311.4z M-300,122.8V96.9h-24
				v25.8H-300z M-312.4,252v-25.8H-324V252H-312.4z"/>
		</defs>
		<clipPath id="SVGID_00000113354683839313918780000010760058916009004679_">
			<use xlink:href="#SVGID_00000067944908514255038510000003044313744465815426_"  style="overflow:visible;"/>
		</clipPath>
		<g style="clip-path:url(#SVGID_00000113354683839313918780000010760058916009004679_);enable-background:new    ;">
			<image style="overflow:visible;" width="24" height="252" xlink:href="2E68E5D4.jpg"  transform="matrix(1 0 0 1 -323.9669 0)">
			</image>
		</g>
	</g>
</g>
<g>
	<path class="st1" d="M158.3,36.9L158.3,36.9v12.9l0,0V36.9z"/>
	<path class="st1" d="M158.3,53L158.3,53v12.9l0,0V53z"/>
	<path class="st1" d="M158.3,101.3L158.3,101.3v12.9l0,0V101.3z"/>
	<path class="st1" d="M158.3,133.5L158.3,133.5v12.9l0,0V133.5z"/>
	<path class="st1" d="M158.3,149.6h6.2v12.9h-6.2V149.6z"/>
	<path class="st1" d="M158.3,181.8L158.3,181.8v12.9l0,0V181.8z"/>
	<path class="st1" d="M158.3,197.9h11.8v12.9h-11.8V197.9z"/>
	<path class="st1" d="M158.3,214L158.3,214v12.9l0,0V214z"/>
	<path class="st1" d="M158.3,230L158.3,230v12.9l0,0V230z"/>
	<path class="st1" d="M158.3,262.2h5.7v12.9h-5.7V262.2z"/>
</g>
<g transform="translate(365.0003,21.8)">
	
		<text transform="matrix(6.123234e-17 -1 1 6.123234e-17 -178.1291 -56.5684)" style="font-family:'Arial-BoldMT'; font-size:11.7333px;">PWISelf</text>
</g>
<g>
	<line class="st0" x1="184" y1="24" x2="184" y2="288"/>
</g>
<g transform="matrix(0.4931,0,0,0.4988,355.632,36.878)">
	<g>
		<defs>
			<path id="SVGID_00000086653745718130867120000012463114696181361796_" d="M-348,0h-11.2v25.8h11.2V0z M-348,32.3h-8.6v25.8h8.6
				V32.3z M-348,64.5h-13.7v25.8h13.7V64.5z M-348,96.8h-19v25.8h19V96.8z M-348,225.9h-14.6v25.8h14.6V225.9z M-348,258.2h-11.5
				V284h11.5V258.2z"/>
		</defs>
		<clipPath id="SVGID_00000057116540830857549940000013547108886582577325_">
			<use xlink:href="#SVGID_00000086653745718130867120000012463114696181361796_"  style="overflow:visible;"/>
		</clipPath>
		<g style="clip-path:url(#SVGID_00000057116540830857549940000013547108886582577325_);enable-background:new    ;">
			<image style="overflow:visible;" width="19" height="284" xlink:href="2E68E5D7.jpg"  transform="matrix(1 0 0 1 -367.0159 0)">
			</image>
		</g>
	</g>
</g>
<g>
	<path class="st1" d="M184,36.9h-5.5v12.9h5.5V36.9z"/>
	<path class="st1" d="M184,53h-4.3v12.9h4.3V53z"/>
	<path class="st1" d="M184,69.1h-6.7V82h6.7V69.1z"/>
	<path class="st1" d="M184,85.2h-9.4V98h9.4V85.2z"/>
	<path class="st1" d="M184,117.4L184,117.4v12.9l0,0V117.4z"/>
	<path class="st1" d="M184,149.6h-7.2v12.9h7.2V149.6z"/>
	<path class="st1" d="M184,165.7h-5.7v12.9h5.7V165.7z"/>
	<path class="st1" d="M184,181.8L184,181.8v12.9l0,0V181.8z"/>
	<path class="st1" d="M184,197.9L184,197.9v12.9l0,0V197.9z"/>
	<path class="st1" d="M184,246.1L184,246.1V259l0,0V246.1z"/>
	<path class="st1" d="M184,262.2L184,262.2v12.9l0,0V262.2z"/>
</g>
<g transform="translate(413.0004,21.8)">
	
		<text transform="matrix(6.123234e-17 -1 1 6.123234e-17 -199.6087 -51.7881)" style="font-family:'Arial-BoldMT'; font-size:11.7333px;">PWIOther</text>
</g>
<g>
	<line class="st0" x1="210.8" y1="24" x2="210.8" y2="288"/>
</g>
<g transform="matrix(0.4671,0,0,0.4992,405.9934,52.9756)">
	<g>
		<defs>
			<path id="SVGID_00000106830835325605166510000016557476278620253328_" d="M-418,0h-9.2v25.8h9.2V0z M-418,32.2h-6.5V58h6.5V32.2z
				 M-418,161.2h-7.7V187h7.7V161.2z M-418,193.5h-10.4v25.8h10.4V193.5z M-418,290.2h-11V316h11V290.2z M-418,322.5h-15v25.8h15
				V322.5z M-418,419.2h-3.8V445h3.8V419.2z"/>
		</defs>
		<clipPath id="SVGID_00000014598635016192895890000007320894237189590691_">
			<use xlink:href="#SVGID_00000106830835325605166510000016557476278620253328_"  style="overflow:visible;"/>
		</clipPath>
		<g style="clip-path:url(#SVGID_00000014598635016192895890000007320894237189590691_);enable-background:new    ;">
			<image style="overflow:visible;" width="15" height="445" xlink:href="2E68E5D5.jpg"  transform="matrix(1 0 0 1 -432.9595 0)">
			</image>
		</g>
	</g>
</g>
<g>
	<path class="st1" d="M210.8,53h-4.3v12.9h4.3V53z"/>
	<path class="st1" d="M210.8,69.1h-3V82h3V69.1z"/>
	<path class="st1" d="M210.8,85.2L210.8,85.2V98l0,0V85.2z"/>
	<path class="st1" d="M210.8,101.3L210.8,101.3v12.9l0,0V101.3z"/>
	<path class="st1" d="M210.8,117.4L210.8,117.4v12.9l0,0V117.4z"/>
	<path class="st1" d="M210.8,133.5h-3.6v12.9h3.6V133.5z"/>
	<path class="st1" d="M210.8,149.6h-4.9v12.9h4.9V149.6z"/>
	<path class="st1" d="M210.8,165.7L210.8,165.7v12.9l0,0V165.7z"/>
	<path class="st1" d="M210.8,181.8L210.8,181.8v12.9l0,0V181.8z"/>
	<path class="st1" d="M210.8,197.9h-5.2v12.9h5.2V197.9z"/>
	<path class="st1" d="M210.8,214h-7v12.9h7V214z"/>
	<path class="st1" d="M210.8,246.1L210.8,246.1V259l0,0V246.1z"/>
	<path class="st1" d="M210.8,262.2H209v12.9h1.8V262.2z"/>
</g>
<g transform="translate(460.0004,21.8)">
	
		<text transform="matrix(6.123234e-17 -1 1 6.123234e-17 -220.903 -59.8233)" style="font-family:'Arial-BoldMT'; font-size:11.7333px;">EVSelf</text>
</g>
<g>
	<line class="st0" x1="236.5" y1="24" x2="236.5" y2="288"/>
</g>
<g transform="matrix(0.4933,0,0,0.4992,460,52.9756)">
	<g>
		<defs>
			<path id="SVGID_00000147912153731411505540000003166794688655564440_" d="M-437.7,25.8V0h-15.4v25.8H-437.7z M-425.1,219.3v-25.8
				h-28v25.8H-425.1z M-434.9,316v-25.8h-18.1V316H-434.9z M-436.9,445v-25.8h-16.1V445H-436.9z"/>
		</defs>
		<clipPath id="SVGID_00000018934572797115797050000009381719085877016728_">
			<use xlink:href="#SVGID_00000147912153731411505540000003166794688655564440_"  style="overflow:visible;"/>
		</clipPath>
		<g style="clip-path:url(#SVGID_00000018934572797115797050000009381719085877016728_);enable-background:new    ;">
			<image style="overflow:visible;" width="28" height="445" xlink:href="2E68E5DB.jpg"  transform="matrix(1 0 0 1 -453.0615 0)">
			</image>
		</g>
	</g>
</g>
<g>
	<path class="st1" d="M236.5,36.9L236.5,36.9v12.9l0,0V36.9z"/>
	<path class="st1" d="M236.5,53h7.6v12.9h-7.6V53z"/>
	<path class="st1" d="M236.5,69.1L236.5,69.1V82l0,0V69.1z"/>
	<path class="st1" d="M236.5,85.2L236.5,85.2V98l0,0V85.2z"/>
	<path class="st1" d="M236.5,117.4L236.5,117.4v12.9l0,0V117.4z"/>
	<path class="st1" d="M236.5,133.5L236.5,133.5v12.9l0,0V133.5z"/>
	<path class="st1" d="M236.5,149.6h13.8v12.9h-13.8V149.6z"/>
	<path class="st1" d="M236.5,181.8L236.5,181.8v12.9l0,0V181.8z"/>
	<path class="st1" d="M236.5,197.9h8.9v12.9h-8.9V197.9z"/>
	<path class="st1" d="M236.5,214L236.5,214v12.9l0,0V214z"/>
	<path class="st1" d="M236.5,230L236.5,230v12.9l0,0V230z"/>
	<path class="st1" d="M236.5,262.2h7.9v12.9h-7.9V262.2z"/>
</g>
<g transform="translate(507.5005,21.8)">
	
		<text transform="matrix(6.123234e-17 -1 1 6.123234e-17 -241.8826 -55.043)" style="font-family:'Arial-BoldMT'; font-size:11.7333px;">EVOther</text>
</g>
<g>
	<line class="st0" x1="262.7" y1="24" x2="262.7" y2="288"/>
</g>
<g transform="matrix(0.4743,0,0,0.4998,507.5,52.9756)">
	<g>
		<defs>
			<path id="SVGID_00000039114899898395008250000009252351097208729261_" d="M-504.5,25.8V0H-516v25.8H-504.5z M-502.9,58V32.2H-516
				V58H-502.9z M-498,219v-25.8h-18V219H-498z"/>
		</defs>
		<clipPath id="SVGID_00000006685851768622467820000002666611029336727199_">
			<use xlink:href="#SVGID_00000039114899898395008250000009252351097208729261_"  style="overflow:visible;"/>
		</clipPath>
		<g style="clip-path:url(#SVGID_00000006685851768622467820000002666611029336727199_);enable-background:new    ;">
			<image style="overflow:visible;" width="18" height="219" xlink:href="2E68E5DC.jpg"  transform="matrix(1 0 0 1 -516.0343 0)">
			</image>
		</g>
	</g>
</g>
<g>
	<path class="st1" d="M262.7,36.9L262.7,36.9v12.9l0,0V36.9z"/>
	<path class="st1" d="M262.7,53h5.5v12.9h-5.5V53z"/>
	<path class="st1" d="M262.7,69.1h6.2V82h-6.2V69.1z"/>
	<path class="st1" d="M262.7,85.2L262.7,85.2V98l0,0V85.2z"/>
	<path class="st1" d="M262.7,101.3L262.7,101.3v12.9l0,0V101.3z"/>
	<path class="st1" d="M262.7,117.4L262.7,117.4v12.9l0,0V117.4z"/>
	<path class="st1" d="M262.7,133.5L262.7,133.5v12.9l0,0V133.5z"/>
	<path class="st1" d="M262.7,149.6h8.5v12.9h-8.5V149.6z"/>
	<path class="st1" d="M262.7,181.8L262.7,181.8v12.9l0,0V181.8z"/>
	<path class="st1" d="M262.7,197.9L262.7,197.9v12.9l0,0V197.9z"/>
	<path class="st1" d="M262.7,214L262.7,214v12.9l0,0V214z"/>
	<path class="st1" d="M262.7,246.1L262.7,246.1V259l0,0V246.1z"/>
	<path class="st1" d="M262.7,262.2L262.7,262.2v12.9l0,0V262.2z"/>
</g>
<g transform="translate(555.0005,21.8)">
	
		<text transform="matrix(6.123234e-17 -1 1 6.123234e-17 -263.0993 -59.5)" style="font-family:'Arial-BoldMT'; font-size:11.7333px;">RESelf</text>
</g>
<g>
	<line class="st0" x1="289" y1="24" x2="289" y2="288"/>
	<path class="st1" d="M289,149.6L289,149.6v12.9l0,0V149.6z"/>
</g>
<g transform="translate(602.0005,21.8)">
	
		<text transform="matrix(6.123234e-17 -1 1 6.123234e-17 -284.5787 -54.7188)" style="font-family:'Arial-BoldMT'; font-size:11.7333px;">REOther</text>
</g>
<g>
	<line class="st0" x1="314.7" y1="24" x2="314.7" y2="288"/>
</g>
<g transform="matrix(0.4944,0,0,0.4992,597.0565,52.9756)">
	<g>
		<defs>
			<path id="SVGID_00000082348028611663020890000001133268001656031399_" d="M-571.1,0h-4.8v25.8h4.8V0z M-571.1,32.2h-3.9V58h3.9
				V32.2z M-571.1,193.5h-9v25.8h9V193.5z M-571.1,290.2h-10V316h10V290.2z"/>
		</defs>
		<clipPath id="SVGID_00000118360783455076424890000015484021566161474689_">
			<use xlink:href="#SVGID_00000082348028611663020890000001133268001656031399_"  style="overflow:visible;"/>
		</clipPath>
		<g style="clip-path:url(#SVGID_00000118360783455076424890000015484021566161474689_);enable-background:new    ;">
			<image style="overflow:visible;" width="10" height="316" xlink:href="2E68E5DF.jpg"  transform="matrix(1 0 0 1 -581.0574 0)">
			</image>
		</g>
	</g>
</g>
<g>
	<path class="st1" d="M314.7,36.9L314.7,36.9v12.9l0,0V36.9z"/>
	<path class="st1" d="M314.7,53h-2.4v12.9h2.4V53z"/>
	<path class="st1" d="M314.7,69.1h-1.9V82h1.9V69.1z"/>
	<path class="st1" d="M314.7,85.2L314.7,85.2V98l0,0V85.2z"/>
	<path class="st1" d="M314.7,101.3L314.7,101.3v12.9l0,0V101.3z"/>
	<path class="st1" d="M314.7,117.4L314.7,117.4v12.9l0,0V117.4z"/>
	<path class="st1" d="M314.7,133.5L314.7,133.5v12.9l0,0V133.5z"/>
	<path class="st1" d="M314.7,149.6h-4.4v12.9h4.4V149.6z"/>
	<path class="st1" d="M314.7,165.7L314.7,165.7v12.9l0,0V165.7z"/>
	<path class="st1" d="M314.7,181.8L314.7,181.8v12.9l0,0V181.8z"/>
	<path class="st1" d="M314.7,197.9h-4.9v12.9h4.9V197.9z"/>
	<path class="st1" d="M314.7,214L314.7,214v12.9l0,0V214z"/>
	<path class="st1" d="M314.7,230L314.7,230v12.9l0,0V230z"/>
	<path class="st1" d="M314.7,262.2L314.7,262.2v12.9l0,0V262.2z"/>
</g>
<g transform="translate(650.0006,21.8)">
	
		<text transform="matrix(6.123234e-17 -1 1 6.123234e-17 -305.9424 -59.8233)" style="font-family:'Arial-BoldMT'; font-size:11.7333px;">ESSelf</text>
</g>
<g>
	<line class="st0" x1="341.5" y1="24" x2="341.5" y2="288"/>
</g>
<g transform="matrix(0.4842,0,0,0.4995,650,36.878)">
	<g>
		<defs>
			<path id="SVGID_00000063627961271547437650000002673796507066997405_" d="M-612.2,25.8V0h-25v25.8H-612.2z M-619.4,58V32.2h-17.8
				V58H-619.4z M-625.3,90.2V64.5h-11.9v25.8H-625.3z M-615.5,251.4v-25.8h-21.7v25.8H-615.5z M-627.7,348.1v-25.8h-9.5v25.8H-627.7
				z M-622.7,477v-25.8h-14.5V477H-622.7z"/>
		</defs>
		<clipPath id="SVGID_00000030464421155758602490000007514337925162025110_">
			<use xlink:href="#SVGID_00000063627961271547437650000002673796507066997405_"  style="overflow:visible;"/>
		</clipPath>
		<g style="clip-path:url(#SVGID_00000030464421155758602490000007514337925162025110_);enable-background:new    ;">
			<image style="overflow:visible;" width="25" height="477" xlink:href="B52936DB.jpg"  transform="matrix(1 0 0 1 -637.2049 0)">
			</image>
		</g>
	</g>
</g>
<g>
	<path class="st1" d="M341.5,36.9h12.1v12.9h-12.1V36.9z"/>
	<path class="st1" d="M341.5,53h8.6v12.9h-8.6V53z"/>
	<path class="st1" d="M341.5,69.1h5.8V82h-5.8V69.1z"/>
	<path class="st1" d="M341.5,85.2L341.5,85.2V98l0,0V85.2z"/>
	<path class="st1" d="M341.5,101.3L341.5,101.3v12.9l0,0V101.3z"/>
	<path class="st1" d="M341.5,133.5L341.5,133.5v12.9l0,0V133.5z"/>
	<path class="st1" d="M341.5,149.6H352v12.9h-10.5V149.6z"/>
	<path class="st1" d="M341.5,181.8L341.5,181.8v12.9l0,0V181.8z"/>
	<path class="st1" d="M341.5,197.9h4.6v12.9h-4.6V197.9z"/>
	<path class="st1" d="M341.5,214L341.5,214v12.9l0,0V214z"/>
	<path class="st1" d="M341.5,230L341.5,230v12.9l0,0V230z"/>
	<path class="st1" d="M341.5,262.2h7v12.9h-7V262.2z"/>
</g>
<g transform="translate(697.0007,21.8)">
	
		<text transform="matrix(6.123234e-17 -1 1 6.123234e-17 -326.9221 -55.043)" style="font-family:'Arial-BoldMT'; font-size:11.7333px;">ESOther</text>
</g>
<g>
	<line class="st0" x1="367.2" y1="24" x2="367.2" y2="288"/>
</g>
<g transform="matrix(0.4834,0,0,0.4988,697,52.9756)">
	<g>
		<defs>
			<path id="SVGID_00000021815474261014686660000002371532957320200872_" d="M-670.3,25.8V0h-11.9v25.8H-670.3z M-670.4,58.1V32.3
				h-11.9v25.8H-670.4z M-671.2,219.5v-25.8h-11.1v25.8H-671.2z M-669.2,284v-25.8h-13V284H-669.2z"/>
		</defs>
		<clipPath id="SVGID_00000005974828259340491690000012682859805528519300_">
			<use xlink:href="#SVGID_00000021815474261014686660000002371532957320200872_"  style="overflow:visible;"/>
		</clipPath>
		<g style="clip-path:url(#SVGID_00000005974828259340491690000012682859805528519300_);enable-background:new    ;">
			<image style="overflow:visible;" width="13" height="284" xlink:href="B52936D9.jpg"  transform="matrix(1 0 0 1 -682.2392 0)">
			</image>
		</g>
	</g>
</g>
<g>
	<path class="st1" d="M367.2,36.9L367.2,36.9v12.9l0,0V36.9z"/>
	<path class="st1" d="M367.2,53h5.8v12.9h-5.8V53z"/>
	<path class="st1" d="M367.2,69.1h5.7V82h-5.7V69.1z"/>
	<path class="st1" d="M367.2,85.2L367.2,85.2V98l0,0V85.2z"/>
	<path class="st1" d="M367.2,117.4L367.2,117.4v12.9l0,0V117.4z"/>
	<path class="st1" d="M367.2,149.6h5.4v12.9h-5.4V149.6z"/>
	<path class="st1" d="M367.2,181.8h6.3v12.9h-6.3V181.8z"/>
	<path class="st1" d="M367.2,197.9L367.2,197.9v12.9l0,0V197.9z"/>
	<path class="st1" d="M367.2,214L367.2,214v12.9l0,0V214z"/>
	<path class="st1" d="M367.2,230L367.2,230v12.9l0,0V230z"/>
	<path class="st1" d="M367.2,246.1L367.2,246.1V259l0,0V246.1z"/>
</g>
<g transform="translate(745.0007,21.8)">
	
		<text transform="matrix(6.123234e-17 -1 1 6.123234e-17 -348.3149 -59.1758)" style="font-family:'Arial-BoldMT'; font-size:11.7333px;">CDSelf</text>
</g>
<g>
	<line class="st0" x1="393.9" y1="24" x2="393.9" y2="288"/>
</g>
<g transform="matrix(0.4597,0,0,0.4992,744.9363,52.9756)">
	<g>
		<defs>
			<path id="SVGID_00000164478316018329963950000015831834351443918221_" d="M-755.7,25.8V0h-7.9v25.8H-755.7z M-753.7,219.3v-25.8
				h-9.9v25.8H-753.7z M-763.5,290.2h-0.1V316h0.1V290.2z"/>
		</defs>
		<clipPath id="SVGID_00000007402521924831663530000006457069009573053600_">
			<use xlink:href="#SVGID_00000164478316018329963950000015831834351443918221_"  style="overflow:visible;"/>
		</clipPath>
		<g style="clip-path:url(#SVGID_00000007402521924831663530000006457069009573053600_);enable-background:new    ;">
			<image style="overflow:visible;" width="10" height="316" xlink:href="B52936DF.jpg"  transform="matrix(1 0 0 1 -763.6595 0)">
			</image>
		</g>
	</g>
</g>
<g>
	<path class="st1" d="M393.9,53h3.6v12.9h-3.6V53z"/>
	<path class="st1" d="M393.9,69.1L393.9,69.1V82l0,0V69.1z"/>
	<path class="st1" d="M393.9,101.3L393.9,101.3v12.9l0,0V101.3z"/>
	<path class="st1" d="M393.9,133.5L393.9,133.5v12.9l0,0V133.5z"/>
	<path class="st1" d="M393.9,149.6h4.5v12.9h-4.5V149.6z"/>
	<path class="st1" d="M393.9,181.8L393.9,181.8v12.9l0,0V181.8z"/>
	<path class="st1" d="M393.9,197.9L393.9,197.9l-0.1,12.9h0.1V197.9z"/>
	<path class="st1" d="M393.9,214L393.9,214v12.9l0,0V214z"/>
	<path class="st1" d="M393.9,230L393.9,230v12.9l0,0V230z"/>
	<path class="st1" d="M393.9,262.2L393.9,262.2v12.9l0,0V262.2z"/>
</g>
<g transform="translate(792.0007,21.8)">
	
		<text transform="matrix(6.123234e-17 -1 1 6.123234e-17 -369.7944 -54.3955)" style="font-family:'Arial-BoldMT'; font-size:11.7333px;">CDOther</text>
</g>
<g>
	<line class="st0" x1="419.7" y1="24" x2="419.7" y2="288"/>
</g>
<g transform="matrix(0.4887,0,0,0.4992,792,52.9756)">
	<g>
		<defs>
			<path id="SVGID_00000157992781546901213690000015048620420339715715_" d="M-752,25.8V0h-9.8v25.8H-752z M-751.8,316v-25.8h-10
				V316H-751.8z"/>
		</defs>
		<clipPath id="SVGID_00000136412768581038933180000003320658692276900028_">
			<use xlink:href="#SVGID_00000157992781546901213690000015048620420339715715_"  style="overflow:visible;"/>
		</clipPath>
		<g style="clip-path:url(#SVGID_00000136412768581038933180000003320658692276900028_);enable-background:new    ;">
			<image style="overflow:visible;" width="10" height="316" xlink:href="B52936DA.jpg"  transform="matrix(1 0 0 1 -761.8459 0)">
			</image>
		</g>
	</g>
</g>
<g>
	<path class="st1" d="M419.7,36.9L419.7,36.9v12.9l0,0V36.9z"/>
	<path class="st1" d="M419.7,53h4.8v12.9h-4.8V53z"/>
	<path class="st1" d="M419.7,101.3L419.7,101.3v12.9l0,0V101.3z"/>
	<path class="st1" d="M419.7,117.4L419.7,117.4v12.9l0,0V117.4z"/>
	<path class="st1" d="M419.7,133.5L419.7,133.5v12.9l0,0V133.5z"/>
	<path class="st1" d="M419.7,149.6L419.7,149.6v12.9l0,0V149.6z"/>
	<path class="st1" d="M419.7,165.7L419.7,165.7v12.9l0,0V165.7z"/>
	<path class="st1" d="M419.7,181.8L419.7,181.8v12.9l0,0V181.8z"/>
	<path class="st1" d="M419.7,197.9h4.9v12.9h-4.9V197.9z"/>
	<path class="st1" d="M419.7,214L419.7,214v12.9l0,0V214z"/>
	<path class="st1" d="M419.7,230L419.7,230v12.9l0,0V230z"/>
	<path class="st1" d="M419.7,246.1L419.7,246.1V259l0,0V246.1z"/>
</g>
<g transform="translate(840.0008,21.8)">
	
		<text transform="matrix(6.123234e-17 -1 1 6.123234e-17 -390.6584 -59.499)" style="font-family:'Arial-BoldMT'; font-size:11.7333px;">SNSelf</text>
</g>
<g>
	<line class="st0" x1="446.4" y1="24" x2="446.4" y2="288"/>
</g>
<g transform="matrix(1,0,0,1,0,-0)">
	<path d="M446.4,262.2h8.7v12.9h-8.7V262.2z"/>
</g>
<g>
	<path class="st1" d="M446.4,36.9L446.4,36.9v12.9l0,0V36.9z"/>
	<path class="st1" d="M446.4,53L446.4,53v12.9l0,0V53z"/>
	<path class="st1" d="M446.4,85.2L446.4,85.2V98l0,0V85.2z"/>
	<path class="st1" d="M446.4,117.4L446.4,117.4v12.9l0,0V117.4z"/>
	<path class="st1" d="M446.4,133.5L446.4,133.5v12.9l0,0V133.5z"/>
	<path class="st1" d="M446.4,149.6L446.4,149.6v12.9l0,0V149.6z"/>
	<path class="st1" d="M446.4,165.7L446.4,165.7v12.9l0,0V165.7z"/>
	<path class="st1" d="M446.4,181.8L446.4,181.8v12.9l0,0V181.8z"/>
	<path class="st1" d="M446.4,197.9L446.4,197.9v12.9l0,0V197.9z"/>
	<path class="st1" d="M446.4,214L446.4,214v12.9l0,0V214z"/>
	<path class="st1" d="M446.4,230L446.4,230v12.9l0,0V230z"/>
	<path class="st1" d="M446.4,262.2h8.7v12.9h-8.7V262.2z"/>
</g>
<g transform="translate(887.0009,21.8)">
	
		<text transform="matrix(6.123234e-17 -1 1 6.123234e-17 -412.1381 -54.7188)" style="font-family:'Arial-BoldMT'; font-size:11.7333px;">SNOther</text>
</g>
<g>
	<line class="st0" x1="472.2" y1="24" x2="472.2" y2="288"/>
</g>
<g transform="matrix(0.4394,0,0,0.4953,883.4845,36.878)">
	<g>
		<defs>
			<path id="SVGID_00000174589289638100022980000017995168745358202020_" d="M-936.1,0h-4.6v26h4.6V0z M-936.1,32.5h-2.9v26h2.9
				V32.5z M-936.1,65h-8v26h8V65z"/>
		</defs>
		<clipPath id="SVGID_00000097463434777259178310000003664577730857179035_">
			<use xlink:href="#SVGID_00000174589289638100022980000017995168745358202020_"  style="overflow:visible;"/>
		</clipPath>
		<g style="clip-path:url(#SVGID_00000097463434777259178310000003664577730857179035_);enable-background:new    ;">
			<image style="overflow:visible;" width="8" height="91" xlink:href="B52936C5.jpg"  transform="matrix(1 0 0 1 -944.0915 0)">
			</image>
		</g>
	</g>
</g>
<g>
	<path class="st1" d="M472.2,36.9h-2v12.9h2V36.9z"/>
	<path class="st1" d="M472.2,53h-1.3v12.9h1.3V53z"/>
	<path class="st1" d="M472.2,69.1h-3.5V82h3.5V69.1z"/>
	<path class="st1" d="M472.2,85.2L472.2,85.2V98l0,0V85.2z"/>
	<path class="st1" d="M472.2,101.3L472.2,101.3v12.9l0,0V101.3z"/>
	<path class="st1" d="M472.2,133.5L472.2,133.5v12.9l0,0V133.5z"/>
	<path class="st1" d="M472.2,181.8L472.2,181.8v12.9l0,0V181.8z"/>
	<path class="st1" d="M472.2,197.9L472.2,197.9v12.9l0,0V197.9z"/>
	<path class="st1" d="M472.2,214L472.2,214v12.9l0,0V214z"/>
	<path class="st1" d="M472.2,230L472.2,230v12.9l0,0V230z"/>
	<path class="st1" d="M472.2,246.1L472.2,246.1V259l0,0V246.1z"/>
</g>
<g transform="translate(935.0009,21.8)">
	
		<text transform="matrix(6.123234e-17 -1 1 6.123234e-17 -433.3544 -59.1758)" style="font-family:'Arial-BoldMT'; font-size:11.7333px;">CBSelf</text>
</g>
<g>
	<line class="st0" x1="498.9" y1="24" x2="498.9" y2="288"/>
</g>
<g transform="matrix(0.4989,0,0,0.4983,935,36.878)">
	<g>
		<defs>
			<path id="SVGID_00000109737147880666576790000003242073726926831542_" d="M-858.8,25.8V0h-15.3v25.8H-858.8z M-864.3,58.2V32.3
				h-9.8v25.8H-864.3z M-858.1,90.5V64.6h-16v25.8H-858.1z M-861.6,252v-25.8h-12.5V252H-861.6z"/>
		</defs>
		<clipPath id="SVGID_00000085963397998341101880000002668544604920950426_">
			<use xlink:href="#SVGID_00000109737147880666576790000003242073726926831542_"  style="overflow:visible;"/>
		</clipPath>
		<g style="clip-path:url(#SVGID_00000085963397998341101880000002668544604920950426_);enable-background:new    ;">
			<image style="overflow:visible;" width="16" height="252" xlink:href="B52936C6.jpg"  transform="matrix(1 0 0 1 -874.1104 0)">
			</image>
		</g>
	</g>
</g>
<g>
	<path class="st1" d="M498.9,36.9h7.6v12.9h-7.6V36.9z"/>
	<path class="st1" d="M498.9,53h4.9v12.9h-4.9V53z"/>
	<path class="st1" d="M498.9,69.1h8V82h-8V69.1z"/>
	<path class="st1" d="M498.9,85.2L498.9,85.2V98l0,0V85.2z"/>
	<path class="st1" d="M498.9,101.3L498.9,101.3v12.9l0,0V101.3z"/>
	<path class="st1" d="M498.9,117.4L498.9,117.4v12.9l0,0V117.4z"/>
	<path class="st1" d="M498.9,133.5L498.9,133.5v12.9l0,0V133.5z"/>
	<path class="st1" d="M498.9,149.6h6.2v12.9h-6.2V149.6z"/>
	<path class="st1" d="M498.9,165.7L498.9,165.7v12.9l0,0V165.7z"/>
	<path class="st1" d="M498.9,181.8L498.9,181.8v12.9l0,0V181.8z"/>
	<path class="st1" d="M498.9,197.9L498.9,197.9v12.9l0,0V197.9z"/>
	<path class="st1" d="M498.9,214L498.9,214v12.9l0,0V214z"/>
	<path class="st1" d="M498.9,246.1L498.9,246.1V259l0,0V246.1z"/>
	<path class="st1" d="M498.9,262.2L498.9,262.2v12.9l0,0V262.2z"/>
</g>
<g transform="translate(982.0009,21.8)">
	
		<text transform="matrix(6.123234e-17 -1 1 6.123234e-17 -454.834 -54.3955)" style="font-family:'Arial-BoldMT'; font-size:11.7333px;">CBOther</text>
</g>
<g>
	<line class="st0" x1="524.6" y1="24" x2="524.6" y2="288"/>
</g>
<g transform="matrix(0.4948,0,0,0.4999,982,52.9756)">
	<g>
		<defs>
			<path id="SVGID_00000024689532255861526210000003586856789233821081_" d="M-913,25.8V0h-11.3v25.8H-913z M-917.1,219v-25.8h-7.3
				V219H-917.1z M-910.3,315.6v-25.8h-14v25.8H-910.3z M-915,380v-25.8h-9.3V380H-915z"/>
		</defs>
		<clipPath id="SVGID_00000127039564535595196610000006587890704866972843_">
			<use xlink:href="#SVGID_00000024689532255861526210000003586856789233821081_"  style="overflow:visible;"/>
		</clipPath>
		<g style="clip-path:url(#SVGID_00000127039564535595196610000006587890704866972843_);enable-background:new    ;">
			<image style="overflow:visible;" width="14" height="380" xlink:href="B52936C7.jpg"  transform="matrix(1 0 0 1 -924.3199 0)">
			</image>
		</g>
	</g>
</g>
<g>
	<path class="st1" d="M524.6,36.9L524.6,36.9v12.9l0,0V36.9z"/>
	<path class="st1" d="M524.6,53h5.6v12.9h-5.6V53z"/>
	<path class="st1" d="M524.6,69.1L524.6,69.1V82l0,0V69.1z"/>
	<path class="st1" d="M524.6,85.2L524.6,85.2V98l0,0V85.2z"/>
	<path class="st1" d="M524.6,101.3L524.6,101.3v12.9l0,0V101.3z"/>
	<path class="st1" d="M524.6,117.4L524.6,117.4v12.9l0,0V117.4z"/>
	<path class="st1" d="M524.6,149.6h3.6v12.9h-3.6V149.6z"/>
	<path class="st1" d="M524.6,165.7L524.6,165.7v12.9l0,0V165.7z"/>
	<path class="st1" d="M524.6,181.8L524.6,181.8v12.9l0,0V181.8z"/>
	<path class="st1" d="M524.6,197.9h6.9v12.9h-6.9V197.9z"/>
	<path class="st1" d="M524.6,230h4.6v12.9h-4.6V230z"/>
	<path class="st1" d="M524.6,246.1L524.6,246.1V259l0,0V246.1z"/>
	<path class="st1" d="M524.6,262.2L524.6,262.2v12.9l0,0V262.2z"/>
</g>
<g transform="translate(1030.001,21.8)">
	
		<text transform="matrix(6.123234e-17 -1 1 6.123234e-17 -476.0475 -58.8496)" style="font-family:'Arial-BoldMT'; font-size:11.7333px;">GRSelf</text>
</g>
<g>
	<line class="st0" x1="551.4" y1="24" x2="551.4" y2="288"/>
</g>
<g transform="matrix(1,0,0,1,0,-0)">
	<path class="st5" d="M551.4,149.6H547v12.9h4.4V149.6z"/>
</g>
<g>
	<path class="st1" d="M551.4,53L551.4,53v12.9l0,0V53z"/>
	<path class="st1" d="M551.4,69.1L551.4,69.1V82l0,0V69.1z"/>
	<path class="st1" d="M551.4,85.2L551.4,85.2V98l0,0V85.2z"/>
	<path class="st1" d="M551.4,117.4L551.4,117.4v12.9l0,0V117.4z"/>
	<path class="st1" d="M551.4,149.6H547v12.9h4.4V149.6z"/>
	<path class="st1" d="M551.4,181.8L551.4,181.8v12.9l0,0V181.8z"/>
	<path class="st1" d="M551.4,197.9L551.4,197.9v12.9l0,0V197.9z"/>
	<path class="st1" d="M551.4,230L551.4,230v12.9l0,0V230z"/>
	<path class="st1" d="M551.4,262.2L551.4,262.2v12.9l0,0V262.2z"/>
</g>
<g transform="translate(1077.001,21.8)">
	
		<text transform="matrix(6.123234e-17 -1 1 6.123234e-17 -497.027 -54.0684)" style="font-family:'Arial-BoldMT'; font-size:11.7333px;">GROther</text>
</g>
<g>
	<line class="st0" x1="577.1" y1="24" x2="577.1" y2="288"/>
	<path class="st1" d="M577.1,36.9L577.1,36.9v12.9l0,0V36.9z"/>
	<path class="st1" d="M577.1,53L577.1,53v12.9l0,0V53z"/>
	<path class="st1" d="M577.1,69.1L577.1,69.1V82l0,0V69.1z"/>
	<path class="st1" d="M577.1,85.2L577.1,85.2V98l0,0V85.2z"/>
	<path class="st1" d="M577.1,133.5L577.1,133.5v12.9l0,0V133.5z"/>
	<path class="st1" d="M577.1,149.6L577.1,149.6v12.9l0,0V149.6z"/>
	<path class="st1" d="M577.1,181.8L577.1,181.8v12.9l0,0V181.8z"/>
	<path class="st1" d="M577.1,197.9L577.1,197.9v12.9l0,0V197.9z"/>
	<path class="st1" d="M577.1,214L577.1,214v12.9l0,0V214z"/>
	<path class="st1" d="M577.1,262.2L577.1,262.2v12.9l0,0V262.2z"/>
</g>
</svg>
